gait_60.mot
version=1
nRows=15
nColumns=19
inDegrees=yes
endheader
time	ground_force_vx	ground_force_vy	ground_force_vz	ground_force_px	ground_force_py	ground_force_pz	1_ground_force_vx	1_ground_force_vy	1_ground_force_vz	1_ground_force_px	1_ground_force_py	1_ground_force_pz	ground_torque_x	ground_torque_y	ground_torque_z	1_ground_torque_x	1_ground_torque_y	1_ground_torque_z
      1.15300000	      1.47499988	     -9.04622378	      0.18966127	     -0.57315210	      0.00000000	     -0.27396777	      0.00000000	      0.00000000	      0.00000000	      0.00000000	      0.00000000	      0.00000000	      0.00000000	     -0.02422261	      0.00000000	      0.00000000	      0.00000000	      0.00000000
      1.15400000	      1.51854316	     -9.20838114	      0.18324532	     -0.57271007	      0.00000000	     -0.27399928	      0.00000000	      0.00000000	      0.00000000	      0.00000000	      0.00000000	      0.00000000	      0.00000000	     -0.02526104	      0.00000000	      0.00000000	      0.00000000	      0.00000000
      1.15500000	      1.56225392	     -9.36597457	      0.17621050	     -0.57225974	      0.00000000	     -0.27403137	      0.00000000	      0.00000000	      0.00000000	      0.00000000	      0.00000000	      0.00000000	      0.00000000	     -0.02632741	      0.00000000	      0.00000000	      0.00000000	      0.00000000
      1.15600000	      1.60607750	     -9.51852405	      0.16853317	     -0.57180024	      0.00000000	     -0.27406411	      0.00000000	      0.00000000	      0.00000000	      0.00000000	      0.00000000	      0.00000000	      0.00000000	     -0.02742214	      0.00000000	      0.00000000	      0.00000000	      0.00000000
      1.15700000	      1.64995610	     -9.66553064	      0.16018938	     -0.57133059	      0.00000000	     -0.27409758	      0.00000000	      0.00000000	      0.00000000	      0.00000000	      0.00000000	      0.00000000	      0.00000000	     -0.02854570	      0.00000000	      0.00000000	      0.00000000	      0.00000000
      1.15800000	      1.69382869	     -9.80647620	      0.15115480	     -0.57084977	      0.00000000	     -0.27413185	      0.00000000	      0.00000000	      0.00000000	      0.00000000	      0.00000000	      0.00000000	      0.00000000	     -0.02969857	      0.00000000	      0.00000000	      0.00000000	      0.00000000
      1.15900000	      1.73763087	     -9.94082303	      0.14140478	     -0.57035666	      0.00000000	     -0.27416699	      0.00000000	      0.00000000	      0.00000000	      0.00000000	      0.00000000	      0.00000000	      0.00000000	     -0.03088130	      0.00000000	      0.00000000	      0.00000000	      0.00000000
      1.16000000	      1.78129484	    -10.06801363	      0.13091440	     -0.56985006	      0.00000000	     -0.27420310	      0.00000000	      0.00000000	      0.00000000	      0.00000000	      0.00000000	      0.00000000	      0.00000000	     -0.03209448	      0.00000000	      0.00000000	      0.00000000	      0.00000000
      1.16100000	      1.82474928	    -10.18747044	      0.11965842	     -0.56932866	      0.00000000	     -0.27424025	      0.00000000	      0.00000000	      0.00000000	      0.00000000	      0.00000000	      0.00000000	      0.00000000	     -0.03333877	      0.00000000	      0.00000000	      0.00000000	      0.00000000
      1.16200000	      1.86791928	    -10.29859552	      0.10761135	     -0.56879101	      0.00000000	     -0.27427857	      0.00000000	      0.00000000	      0.00000000	      0.00000000	      0.00000000	      0.00000000	      0.00000000	     -0.03461491	      0.00000000	      0.00000000	      0.00000000	      0.00000000
      1.16300000	      1.91072624	    -10.40077040	      0.09474746	     -0.56823556	      0.00000000	     -0.27431815	      0.00000000	      0.00000000	      0.00000000	      0.00000000	      0.00000000	      0.00000000	      0.00000000	     -0.03592373	      0.00000000	      0.00000000	      0.00000000	      0.00000000
      1.16400000	      1.95308777	    -10.49335575	      0.08104079	     -0.56766056	      0.00000000	     -0.27435913	      0.00000000	      0.00000000	      0.00000000	      0.00000000	      0.00000000	      0.00000000	      0.00000000	     -0.03726619	      0.00000000	      0.00000000	      0.00000000	      0.00000000
      1.16500000	      1.99491765	    -10.57569130	      0.06646521	     -0.56706410	      0.00000000	     -0.27440164	      0.00000000	      0.00000000	      0.00000000	      0.00000000	      0.00000000	      0.00000000	      0.00000000	     -0.03864336	      0.00000000	      0.00000000	      0.00000000	      0.00000000
      1.16600000	      2.03612567	    -10.64709552	      0.05099441	     -0.56644406	      0.00000000	     -0.27444583	      0.00000000	      0.00000000	      0.00000000	      0.00000000	      0.00000000	      0.00000000	      0.00000000	     -0.04005649	      0.00000000	      0.00000000	      0.00000000	      0.00000000
      1.16700000	      2.07661764	    -10.70686555	      0.03460197	     -0.56579809	      0.00000000	     -0.27449186	      0.00000000	      0.00000000	      0.00000000	      0.00000000	      0.00000000	      0.00000000	      0.00000000	     -0.04150702	      0.00000000	      0.00000000	      0.00000000	      0.00000000
